<mxfile host="65bd71144e" scale="3" border="0">
    <diagram id="LzTGRrPrDBO6Tm46XuKC" name="Page-1">
        <mxGraphModel dx="1511" dy="2076" grid="0" gridSize="10" guides="1" tooltips="1" connect="1" arrows="1" fold="1" page="0" pageScale="1" pageWidth="1600" pageHeight="1200" math="0" shadow="0">
            <root>
                <mxCell id="0"/>
                <mxCell id="1" parent="0"/>
                <mxCell id="362" style="edgeStyle=none;html=1;exitX=0.5;exitY=1;exitDx=0;exitDy=0;fontSize=14;" edge="1" parent="1" source="352" target="353">
                    <mxGeometry relative="1" as="geometry"/>
                </mxCell>
                <mxCell id="352" value="Start Initialization Checks" style="rounded=1;whiteSpace=wrap;html=1;fontSize=14;" vertex="1" parent="1">
                    <mxGeometry x="-309" y="-1048" width="120" height="60" as="geometry"/>
                </mxCell>
                <mxCell id="363" style="edgeStyle=none;html=1;exitX=0.5;exitY=1;exitDx=0;exitDy=0;fontSize=14;" edge="1" parent="1" source="353" target="357">
                    <mxGeometry relative="1" as="geometry"/>
                </mxCell>
                <mxCell id="353" value="Set up SPI communication" style="rounded=0;whiteSpace=wrap;html=1;fontSize=14;" vertex="1" parent="1">
                    <mxGeometry x="-309" y="-948" width="120" height="60" as="geometry"/>
                </mxCell>
                <mxCell id="365" style="edgeStyle=none;html=1;exitX=0.5;exitY=1;exitDx=0;exitDy=0;fontSize=14;" edge="1" parent="1" source="354" target="359">
                    <mxGeometry relative="1" as="geometry"/>
                </mxCell>
                <mxCell id="354" value="Send Inter-Core communication testing message" style="rounded=0;whiteSpace=wrap;html=1;fontSize=14;" vertex="1" parent="1">
                    <mxGeometry x="-309" y="-699" width="120" height="60" as="geometry"/>
                </mxCell>
                <mxCell id="356" value="Success Initalization Check" style="rounded=1;whiteSpace=wrap;html=1;fontSize=14;" vertex="1" parent="1">
                    <mxGeometry x="-309" y="-449" width="120" height="60" as="geometry"/>
                </mxCell>
                <mxCell id="364" style="edgeStyle=none;html=1;exitX=0.5;exitY=1;exitDx=0;exitDy=0;fontSize=14;" edge="1" parent="1" source="357" target="354">
                    <mxGeometry relative="1" as="geometry"/>
                </mxCell>
                <mxCell id="375" value="Yes" style="edgeLabel;html=1;align=center;verticalAlign=middle;resizable=0;points=[];fontSize=13;" vertex="1" connectable="0" parent="364">
                    <mxGeometry x="-0.5337" relative="1" as="geometry">
                        <mxPoint x="15" y="-3" as="offset"/>
                    </mxGeometry>
                </mxCell>
                <mxCell id="370" style="edgeStyle=orthogonalEdgeStyle;html=1;exitX=1;exitY=0.5;exitDx=0;exitDy=0;fontSize=14;entryX=0.5;entryY=0;entryDx=0;entryDy=0;" edge="1" parent="1" source="357" target="360">
                    <mxGeometry relative="1" as="geometry">
                        <mxPoint x="-88" y="-793.5" as="targetPoint"/>
                    </mxGeometry>
                </mxCell>
                <mxCell id="374" value="No" style="edgeLabel;html=1;align=center;verticalAlign=middle;resizable=0;points=[];fontSize=13;" vertex="1" connectable="0" parent="370">
                    <mxGeometry x="-0.0968" y="1" relative="1" as="geometry">
                        <mxPoint x="-90" y="-112" as="offset"/>
                    </mxGeometry>
                </mxCell>
                <mxCell id="357" value="Is SPI ADC self test OK?" style="rhombus;whiteSpace=wrap;html=1;fontSize=14;" vertex="1" parent="1">
                    <mxGeometry x="-348" y="-854" width="198" height="121" as="geometry"/>
                </mxCell>
                <mxCell id="367" style="edgeStyle=none;html=1;exitX=0.5;exitY=1;exitDx=0;exitDy=0;fontSize=14;" edge="1" parent="1" source="359" target="356">
                    <mxGeometry relative="1" as="geometry"/>
                </mxCell>
                <mxCell id="377" value="&lt;font style=&quot;font-size: 13px;&quot;&gt;Yes&lt;/font&gt;" style="edgeLabel;html=1;align=center;verticalAlign=middle;resizable=0;points=[];" vertex="1" connectable="0" parent="367">
                    <mxGeometry x="-0.5308" y="-1" relative="1" as="geometry">
                        <mxPoint x="16" as="offset"/>
                    </mxGeometry>
                </mxCell>
                <mxCell id="371" style="edgeStyle=orthogonalEdgeStyle;html=1;exitX=1;exitY=0.5;exitDx=0;exitDy=0;fontSize=14;entryX=0.5;entryY=0;entryDx=0;entryDy=0;" edge="1" parent="1" source="359" target="360">
                    <mxGeometry relative="1" as="geometry">
                        <mxPoint x="-88" y="-543" as="targetPoint"/>
                    </mxGeometry>
                </mxCell>
                <mxCell id="376" value="&lt;font style=&quot;font-size: 13px;&quot;&gt;No&lt;/font&gt;" style="edgeLabel;html=1;align=center;verticalAlign=middle;resizable=0;points=[];" vertex="1" connectable="0" parent="371">
                    <mxGeometry x="-0.712" y="-1" relative="1" as="geometry">
                        <mxPoint x="-17" y="-12" as="offset"/>
                    </mxGeometry>
                </mxCell>
                <mxCell id="359" value="&lt;span style=&quot;color: rgb(0, 0, 0);&quot;&gt;Recieve same message?&lt;/span&gt;" style="rhombus;whiteSpace=wrap;html=1;fontSize=14;" vertex="1" parent="1">
                    <mxGeometry x="-348" y="-604" width="198" height="121" as="geometry"/>
                </mxCell>
                <mxCell id="360" value="Safety shutdown process" style="rounded=1;whiteSpace=wrap;html=1;fontSize=14;" vertex="1" parent="1">
                    <mxGeometry x="-109" y="-449" width="120" height="60" as="geometry"/>
                </mxCell>
            </root>
        </mxGraphModel>
    </diagram>
</mxfile>